<?xml version="1.0" encoding="utf-8"?>
<!DOCTYPE svg PUBLIC "-//W3C//DTD SVG 1.1//EN" "http://www.w3.org/Graphics/SVG/1.1/DTD/svg11.dtd">
<svg version="1.1" id="Layer_1" xmlns="http://www.w3.org/2000/svg" xmlns:xlink="http://www.w3.org/1999/xlink" x="0px" y="0px"
	 viewBox="542.9465 19.308 1474.1069 1561.3839" enable-background="new 542.9465 19.308 1474.1069 1561.3839" xml:space="preserve"
	>
<g>
	<path fill="#FFFFFF" d="M1730.2739,984.032c-6.5208,10.8346-15.9025,17.8765-27.347,22.1793
		c0.9205-16.6788,0.7542-31.9714-2.9608-42.8835c-8.6167-15.5477-14.084-29.4208-16.6345-41.7635
		c-0.7208-3.4489-1.2089-6.7758-1.475-9.9916c16.9783-2.1071,33.5129-3.7704,49.615-5.0125
		c14.7493-1.1423,29.1213-1.9296,43.1608-2.3732c-3.3157,11.0785-8.1619,21.78-18.8523,31.0509
		C1749.6252,951.8832,1740.3766,967.8524,1730.2739,984.032z"/>
	<path fill="#FFFFFF" d="M1848.5669,938.5646c2.6394-17.9319-5.9108-30.5076-21.0702-39.9227
		c9.7145-12.0322,19.451-21.4695,29.1989-28.1011c31.6166,12.6644,42.2072,37.117,25.5061,76.8955
		c-19.9058,32.0268-40.4771,48.6169-61.7249,48.7943C1835.4368,976.8461,1846.7593,957.5722,1848.5669,938.5646z"/>
	
		<linearGradient id="SVGID_1_" gradientUnits="userSpaceOnUse" x1="430.1717" y1="1087.1035" x2="683.1717" y2="513.1036" gradientTransform="matrix(1.109 0 0 -1.109 524.7177 1774.3395)">
		<stop  offset="0" style="stop-color:#F97501"/>
		<stop  offset="1" style="stop-color:#FFE240"/>
	</linearGradient>
	<path fill="url(#SVGID_1_)" d="M1104.8192,1049.4608c-54.7384-30.2415-101.1707-69.2658-142.3132-113.8572
		c-31.3615-57.8878-34.1782-112.6262-11.0897-164.4924c16.9117-40.3441,35.1874-80.5994,51.0123-124.2037l17.3774-76.1524
		c9.4927-10.0805,20.793-14.3833,33.6348-13.6735l-7.7627,43.9814c1.231,28.8995,2.3621,60.5937,3.3269,96.1137
		c2.6615,24.4749,7.3191,47.5302,14.0505,69.1216c15.8248-67.5912,39.4347-127.8301,74.6664-177.0569
		c4.8795-3.3157,8.3505-2.4951,10.3467,2.5839c-10.1249,90.3361-12.8862,176.6688-3.6929,256.5363
		c16.7897,92.4874,49.8257,166.799,102.7675,218.8426c-23.6985-76.2301-29.931-146.1724-26.2491-212.5548
		c4.314-51.9438,15.0709-98.4426,33.2689-138.6203c6.4763-7.9623,11.5221-8.2285,14.7825,1.109
		c0.3215,46.5875,5.7444,95.3485,14.7936,145.64c13.9064,54.9935,34.0341,106.2719,63.5768,151.9278
		c-30.208-8.5612-51.4336-35.3648-63.9537-79.8453c-4.6133-6.1769-8.3284-5.5559-11.4557-0.366
		c-6.3099,33.4019-9.027,67.569-5.1788,103.1335c4.7908,28.3562,12.8862,60.4052,22.9222,94.6278
		c-52.4872-22.5231-85.3346-57.0894-107.9353-97.9547c-4.6798-3.3602-7.3081-2.6836-7.3967,2.9609
		c17.2333,31.062,37.6604,63.1221,60.9929,96.1027c17.4995,18.5308,46.4545,40.3218,77.9933,62.845
		c-56.679-6.0106-106.6045-35.764-151.9277-81.6973c-35.2096-52.0658-53.707-112.3046-55.4481-180.7608
		c-7.8071,15.8027-10.7236,41.2423-11.0896,71.7166C1101.9359,1020.5723,1105.2184,1035.2328,1104.8192,1049.4608z"/>
	<linearGradient id="SVGID_2_" gradientUnits="userSpaceOnUse" x1="942.7111" y1="107.4254" x2="1599.1846" y2="1424.8687">
		<stop  offset="0" style="stop-color:#FF0000"/>
		<stop  offset="1" style="stop-color:#FFB909"/>
	</linearGradient>
	<path fill="url(#SVGID_2_)" d="M1981.2764,738.2084c0.4326-35.7419-4.3027-71.2619-13.1301-106.6267
		c-1.2197-4.8794-2.5173-9.7478-3.8813-14.6161c-35.9746-28.7664-91.3118-52.7975-146.3829-76.8954
		c-6.4985-17.0004-13.0304-29.2433-19.5841-38.0706c-11.1672-29.6426-40.5991-52.21-78.3704-76.8845
		c34.4221-112.7592-21.3032-199.7018-130.4917-265.0419c-40.0112-13.0636-113.5911-25.7833-191.4734-38.4476
		c-36.4849-15.2705-67.6134-35.4646-90.9348-62.845c-4.2695-6.6427-8.7166-6.1658-13.3076,0
		c-1.231,32.9028,19.3403,69.1106,74.3005,110.5303c3.2825,5.201-1.109,7.4301-8.5059,8.5057
		c-31.4169-9.6146-116.5295-61.6583-184.8306-86.499c-60.3054-22.6229-126.8098-22.7338-199.6133,0
		c-65.8058,32.3817-123.5273,68.2123-170.4031,108.6783c11.6331,0.7983,33.6127-3.9036,60.2499-11.0897
		c25.1735-4.4691,35.0876-1.7965,31.0509,7.3856c-42.3401,8.3949-75.4982,32.5592-99.0636,73.1917
		c-17.3774,40.6655-20.671,95.7478-36.9728,151.5618c-63.0889,44.4473-118.2375,91.4119-157.4726,143.4221
		c-30.3301,28.3783-32.0712,99.7068-19.2183,192.9594c10.7125,54.0176,50.1251,92.8313,104.9854,123.4719
		c46.521,31.4058,58.1318,82.4846,44.3585,147.858c-14.7048,36.5181-38.6473,58.9857-58.775,79.4792
		c8.8717,21.8022,48.8276-3.1827,105.3514-53.2301c6.1215,97.1783,39.1353,183.1229,116.8069,246.5555
		c85.0574,56.4351,161.7866,87.2532,205.5239,56.923c-58.3535-58.3867-80.8433-112.5375-75.4094-163.3833
		c2.1072-4.7131,5.9885-3.1827,10.3578,0c39.9226,40.2885,104.6084,60.2498,162.6404,99.0635
		c45.3788,32.4705,68.2899,76.3411,67.2806,132.3436c-2.3398,47.142-34.3555,85.5232-95.3706,115.3322
		c57.0227,9.5924,112.5928,3.4377,165.9783-26.2493c52.8198-35.1208,97.877-76.1414,128.2626-128.2737
		c15.093,16.9006,17.0448,43.8484,8.1398,79.1134c1.2643,9.3374,5.4561,14.1504,13.3076,13.3076
		c30.1748-12.7419,58.2981-27.5134,82.7952-45.8446c42.8723-34.777,73.6904-74.4446,85.024-121.9858
		c11.4-6.1769,23.0331-14.1725,34.7438-22.911c21.7024-5.9442,42.5509-20.2386,62.1019-47.3195
		c3.9811-4.3029,7.6296-8.65,10.9121-13.0415l-11.8214-1.3972c-12.5869,17.0002-32.4705,33.2244-59.895,48.6279
		c-40.2776,20.2054-77.8713,39.9337-101.4702,57.1116c-5.8441-24.7188-16.6122-41.7192-32.9028-50.0807
		c-7.8625,24.6189-26.8591,43.1385-52.4872,58.032c-4.3583-33.2689-11.9325-53.3633-22.3678-61.736
		c-15.592,22.2902-31.184,37.9819-46.7538,43.2495c6.4652-21.3031,5.6447-42.8059-2.0405-64.4972
		c-14.0839,13.3407-27.7794,22.1016-41.0316,25.6835c2.7725-20.2496,0.366-36.9283-7.9402-49.5261
		c-18.6306-15.6254-42.7837-27.7795-70.2417-37.8933c-56.679-6.0107-106.6045-35.764-151.9277-81.6973
		c-35.2095-52.0658-53.707-112.3046-55.4481-180.7609c-7.807,15.8027-10.7236,41.2423-11.0896,71.7166
		c7.0973,15.1041,10.3799,29.7645,9.9806,43.9926c-54.7383-30.2414-101.1705-69.2657-142.313-113.8572
		c-31.3615-57.8878-34.1782-112.6262-11.0896-164.4924c16.9117-40.3441,35.1874-80.5994,51.0123-124.2037l17.3774-76.1524
		c9.4927-10.0806,20.793-14.3833,33.6348-13.6736l-7.7627,43.9815c1.231,28.8995,2.3621,60.5937,3.3269,96.1137
		c2.6615,24.4749,7.3191,47.5302,14.0505,69.1216c15.825-67.5912,39.4347-127.8301,74.6665-177.0569
		c4.8794-3.3157,8.3505-2.4951,10.3466,2.5839c-10.1249,90.3361-12.8861,176.6688-3.6929,256.5363
		c16.7897,92.4874,49.8256,166.799,102.7675,218.8426c-23.6985-76.2301-29.9308-146.1724-26.249-212.5548
		c4.3138-51.9438,15.0708-98.4426,33.2688-138.6203c6.4764-7.9623,11.5222-8.2285,14.7825,1.109
		c0.3218,46.5875,5.7446,95.3486,14.7937,145.64c13.9064,54.9934,34.0339,106.2719,63.5768,151.9278l17.7434,1.1089
		c2.6393-46.41,15.5033-88.3288,36.5957-126.5991c22.3346-32.9029,61.004-51.8883,113.6686-58.9635
		c50.6797-2.0627,103.5439,0.8871,160.4336,13.119c-3.5376-8.6389-45.7446-19.7062-169.1167-35.8527
		c-9.8032-3.5931-13.5625-7.7184-13.3075-12.1986c33.1359,0.0554,67.7133-1.6191,103.688-4.9904
		c40.4105-4.5135,81.7194-6.2213,124.0153-4.8018c-8.3728-9.5925-38.8026-15.1484-91.4895-16.6344
		c-35.4646-3.715-77.9933-7.2637-124.0153-10.7236c-26.238-5.689-53.818-12.9527-82.4403-21.4363
		c0.5546-2.9387-1.0201-5.5892-4.6133-7.9512c27.0033,0.2994,55.3594,1.8519,84.8357,4.4359
		c91.1123,2.8278,176.3027,4.8794,239.1588,4.0699c-15.703-17.5105-86.3105-25.1291-181.6813-28.2786
		c-75.8862-4.7131-145.4958-10.4021-201.8311-18.1205c-1.6304-2.2955-1.2422-4.1253,0.1885-5.7222
		c120.7769-5.822,234.3789-13.0525,335.4609-22.7337c-9.2155-15.1817-65.1626-25.0737-157.2952-30.8735
		c-74.2007,1.3529-135.2823-10.6349-183.7107-35.4868c-25.1512-20.9372-41.5417-44.4361-41.7747-72.637
		c9.9695-0.0887,24.7522,14.6605,40.6658,32.903c24.9404,9.2156,49.4485,17.4551,70.9735,19.0409
		c-7.6519-10.0028-10.5574-23.4546-10.3578-39.1908c0.7986-5.1566,2.1293-10.0139,4.2585-14.4165
		c3.238-0.998,6.1547-1.2532,8.4946-0.1775c3.0164,2.6394,4.8904,6.8423,6.4763,11.4556
		c4.2141,8.905,10.2468,17.1113,18.6638,24.3972c6.0771,5.4451,10.3245,13.363,13.4961,22.7338
		c11.3779-8.3616,23.3547-13.9175,36.2186-15.3369c12.986-3.1495,23.7318-9.6036,32.67-18.7194
		c6.798,10.0693,5.201,22.9888,0.9758,37.3832c21.1147-2.2512,43.3716-6.3655,66.7485-12.2762l-0.0333-0.1108
		c-34.8768-8.2285-64.1312-24.874-88.5284-48.7944c-70.3193-22.2124-147.5251-28.6887-232.5161-17.3662
		c-58.0209,12.5533-119.4685,17.2776-184.0876,14.7825C965.8331,480.5632,945.5059,408.2921,943.2879,352.478
		c9.4151-8.1731,42.7505,3.7927,82.0632,20.7931c39.8229,7.7184,87.3973,11.9879,139.7292,14.1393
		c63.8873-0.9426,124.4033-1.2976,162.463,2.2179c86.6986,4.4691,172.2438,23.4767,257.002,52.6757
		c-50.0918-34.2004-130.5028-55.7363-230.6642-69.0328c-1.5081-3.1827-1.4526-6.0328,0-8.5945
		c46.2881-9.5814,94.4836-10.0916,144.7196-0.8317c51.6998,12.1431,100.5052,26.3044,141.6699,45.7446
		c88.1846,38.98,141.4259,79.0469,155.5319,120.3224l-72.0825-27.4468c14.095,24.0865,37.1946,43.1165,72.637,55.1708
		c57.9877,21.7136,115.5317,43.3937,142.7788,61.8247c7.907,3.1938,13.729,7.9291,15.8916,15.3259
		c1.0313,3.4932,1.2419,7.5853,0.4657,12.3982c-44.4362,20.6933-94.3173,22.9555-148.7008,10.0694
		c-8.0066-0.2218-16.1465,1.7965-24.3973,5.9105c-6.5096,10.8567-8.1842,19.1185,3.7039,20.1498
		c31.8605,3.8481,56.6237,11.2781,66.1608,26.4266c7.7738,19.3958,9.925,43.6155,6.4763,72.637
		c-3.46,51.8661-27.2139,82.8616-68.5782,95.7477c-14.1282,8.295-33.7678,13.7289-59.6511,15.9358v0.0003
		c-17.9873,1.5304-38.9908,1.4971-63.255-0.2329c-39.9004-10.8013-81.2869-18.5862-124.0151-23.6542
		c-41.5972-1.9739-77.1394,10.3467-104.9854,40.8431c-22.1128,27.5022-31.0621,66.4822-32.903,111.6392
		c23.4546-9.7034,45.7448-16.1354,65.9833-16.8229c19.6841,2.1957,37.7601,5.6779,53.2302,11.2781
		c19.3402,7.1861,37.7268,12.6422,52.6755,11.8327c6.4985-34.6995,20.0391-65.9944,43.9927-92.2325
		c16.7563-10.9233,33.3909-20.9039,48.6057-20.3273c0.5323,2.3731,0.9648,4.7241,1.2974,7.0528l0,0
		c0.6986,4.7131,0.9979,9.3264,0.9204,13.8287c-20.1279,9.1045-36.5625,23.8759-49.5264,43.9925
		c-11.9767,24.3417-14.7935,54.4944-12.9415,87.6081c6.066,10.7568,4.3915,21.3364-2.7723,31.7827
		c-15.969,7.1196-37.9709,9.0492-63.9539,7.5854c-10.3022-8.7386-23.2993-17.4884-38.4365-26.2491
		c-18.431-16.9229-55.3151-22.0129-100.1837-21.9907c6.0883,30.6849,34.0341,57.3777,100.1837,77.073
		c26.0385,1.741,52.2209,1.2531,78.5479-1.2976c35.0986-11.9545,59.8284-28.5002,69.8645-51.5667
		c2.9166-1.4971,5.678-1.7744,8.3174-0.9204c-3.3601,26.8702-17.5881,52.5427-40.4772,77.2504
		c37.494,4.2473,70.8738,2.2179,97.2228-10.5352c21.536-17.0559,40.1223-33.9454,49.5261-50.2693
		c2.7615-1.8521,5.1123-0.2883,7.397,1.8519c-2.3511,18.3644-7.9846,36.9063-24.0313,56.0027
		c2.5837,2.6836,7.0862,4.3693,12.5754,5.5448c11.7108,7.053,9.3154,22.8335-1.4858,43.8041
		c-2.7058,6.8866-6.5208,13.6624-11.4445,20.3051l11.8214,1.3972c20.1388-26.8812,27.0476-55.437,17.9209-86.0221
		c21.1035-72.759,41.0872-113.469,59.8839-120.5109c37.8933-30.8957,61.1593-63.3107,66.5377-97.5887
		c22.8557-22.1349,41.5527-46.5431,56.1912-73.1915C1983.4722,818.2311,1988.3516,780.1271,1981.2764,738.2084z M1755.7798,935.2374
		c-6.1548,16.6455-15.4036,32.6145-25.5061,48.7943c-6.5208,10.8346-15.9026,17.8765-27.347,22.1793
		c0.9205-16.6788,0.7542-31.9714-2.9608-42.8835c-8.6167-15.5475-14.0839-29.4207-16.6344-41.7633h0.0001
		c-0.7209-3.4487-1.209-6.7756-1.4751-9.9916c16.9783-2.1071,33.5129-3.7705,49.615-5.0125v-0.0004
		c14.749-1.1422,29.1212-1.9296,43.1606-2.3732C1771.3164,915.265,1766.4702,925.9665,1755.7798,935.2374z M1882.2017,947.4365
		c-19.9058,32.0269-40.4771,48.6169-61.7249,48.7943c14.96-19.3846,26.2825-38.6584,28.0901-57.666
		c2.6394-17.9319-5.9108-30.5076-21.0702-39.9226c9.7145-12.0323,19.451-21.4696,29.1989-28.1011
		C1888.3121,883.2052,1898.9028,907.6578,1882.2017,947.4365z M1956.1362,838.015c-15.5587,30.1083-33.8344,52.0325-54.3391,67.2808
		c-8.5833-17.8986-20.9594-34.3113-39.1797-48.4284c3.7151-24.9293,9.1489-48.2731,18.1094-68.3897
		c-0.7651-30.4299-0.1218-58.1983,3.6929-79.8453c31.6055-13.5182,61.4365-27.2139,82.4402-41.7635
		c0.5989,13.9619,0.2219,38.1372,1.4751,63.2108C1975.2104,769.5588,1972.1719,805.8661,1956.1362,838.015z"/>
	
		<linearGradient id="SVGID_3_" gradientUnits="userSpaceOnUse" x1="402.3195" y1="1313.4034" x2="1308.3196" y2="1037.4034" gradientTransform="matrix(1.109 0 0 -1.109 524.7177 1774.3395)">
		<stop  offset="0" style="stop-color:#FD7800"/>
		<stop  offset="1" style="stop-color:#FFCE17"/>
	</linearGradient>
	<path fill="url(#SVGID_3_)" d="M1640.2705,409.5896c88.1847,38.98,141.4259,79.0468,155.532,120.3224l-72.0826-27.4468
		c14.0951,24.0867,37.1947,43.1165,72.6371,55.1709c57.9877,21.7134,115.5317,43.3936,142.7788,61.8246
		c7.907,3.1938,13.729,7.9291,15.8916,15.3259c1.0313,3.4933,1.2419,7.5853,0.4657,12.3982
		c-44.4362,20.6932-94.3173,22.9555-148.7008,10.0694c3.0719-9.3707-4.1141-18.8857-16.08-28.467
		c-24.885-23.0443-57.8435-40.7654-96.8456-54.5165c-22.9999-9.1489-47.02-11.633-71.894-8.6943
		c-7.053,2.0405-14.0062,3.9257-20.8595,5.6557l-0.0333-0.1108c-34.877-8.2285-64.1313-24.874-88.5284-48.7944
		c-40.3108-43.2606-105.1407-61.1482-201.0881-44.7244c-30.4299,11.378-64.7412,17.6325-102.0245,19.9613
		c-48.5282-5.1456-97.1895-16.9671-146.0171-35.8528c-45.5118-17.9098-86.7319-62.0021-120.1339-109.2328
		c9.415-8.173,42.7505,3.7927,82.0632,20.793c39.8229,7.7184,87.3973,11.9879,139.7292,14.1393
		c63.8873-0.9426,124.4033-1.2975,162.463,2.2179c86.6986,4.4691,172.2438,23.4767,257.002,52.6757
		c-50.0918-34.2004-130.5028-55.7365-230.6642-69.0329c-1.5082-3.1827-1.4528-6.0327,0-8.5945
		c46.2881-9.5815,94.4836-10.0916,144.7196-0.8317C1550.3004,375.9881,1599.1058,390.1495,1640.2705,409.5896z"/>
	
		<linearGradient id="SVGID_4_" gradientUnits="userSpaceOnUse" x1="433.1113" y1="1325.7772" x2="1192.2498" y2="566.6388" gradientTransform="matrix(1.109 0 0 -1.109 524.7177 1774.3395)">
		<stop  offset="0" style="stop-color:#FCC800"/>
		<stop  offset="1" style="stop-color:#FFFF02"/>
	</linearGradient>
	<path fill="url(#SVGID_4_)" d="M1095.9475,519.7429c-130.1146-39.1797-150.4418-111.4507-152.6598-167.2648
		c33.4019,47.2307,74.6221,91.323,120.1339,109.2328c48.8276,18.8857,97.4889,30.7072,146.017,35.8528
		c37.2833-2.3288,71.5946-8.5834,102.0245-19.9613c95.9474-16.4237,160.7773,1.4638,201.0881,44.7245
		c-70.3192-22.2125-147.5253-28.6888-232.5161-17.3663C1222.0143,517.5139,1160.5669,522.238,1095.9475,519.7429z
		 M1693.8667,574.2705c-22.9999-9.149-47.02-11.633-71.894-8.6943c-7.053,2.0405-14.0062,3.9257-20.8595,5.6557
		c-23.377,5.9108-45.6339,10.025-66.7485,12.2762c4.2252-14.3943,5.8221-27.3138-0.9758-37.3831
		c-8.9382,9.1157-19.6841,15.5698-32.67,18.7193c-12.864,1.4194-24.8408,6.9753-36.2188,15.3369
		c-3.1715-9.3707-7.4189-17.2887-13.496-22.7337c-8.4171-7.2859-14.4498-15.4922-18.6639-24.3972
		c-1.5859-4.6133-3.4598-8.8162-6.4763-11.4556c-2.3398-1.0757-5.2565-0.8206-8.4946,0.1775
		c-2.1292,4.4026-3.46,9.2598-4.2584,14.4165c-0.1996,15.7361,2.7058,29.1879,10.3578,39.1907
		c-21.525-1.5858-46.0331-9.8254-70.9736-19.0409c-15.9136-18.2424-30.6962-32.9916-40.6656-32.903
		c0.2329,28.2009,16.6234,51.6998,41.7747,72.637c48.4283,24.8519,109.51,36.8397,183.7106,35.4868
		c92.1326,5.7999,148.0798,15.6918,157.2952,30.8735c-101.0819,9.6812-214.684,16.9117-335.4609,22.7337
		c-1.4305,1.5969-1.8187,3.4268-0.1885,5.7222c56.3353,7.7184,125.9448,13.4074,201.8312,18.1205
		c95.3707,3.1495,165.9783,10.7681,181.6813,28.2786c-62.8561,0.8095-148.0465-1.2421-239.1588-4.0699
		c-29.4763-2.5839-57.8324-4.1364-84.8357-4.4359c3.593,2.3621,5.1677,5.0125,4.6133,7.9512
		c28.6223,8.4836,56.2021,15.7473,82.4403,21.4363c46.022,3.4599,88.5505,7.0086,124.0153,10.7236
		c52.6869,1.486,83.1167,7.0419,91.4894,16.6344c-42.2958-1.4195-83.6046,0.2883-124.0153,4.8018
		c-35.9747,3.3712-70.5521,5.0458-103.6879,4.9904c-0.2551,4.4802,3.5043,8.6055,13.3075,12.1986
		c123.3721,16.1465,165.5791,27.2139,169.1167,35.8527c-56.8898-12.2319-109.754-15.1817-160.4336-13.119
		c-52.6646,7.0752-91.3341,26.0606-113.6686,58.9635c-21.0925,38.2703-33.9564,80.189-36.5958,126.5991l-17.7433-1.1089
		c-30.2081-8.5612-51.4337-35.3648-63.9539-79.8453c-4.6133-6.1769-8.3284-5.5559-11.4557-0.366
		c-6.3099,33.4019-9.0269,67.569-5.1788,103.1335c4.7908,28.3562,12.8862,60.4052,22.9222,94.6278
		c-52.4872-22.5231-85.3346-57.0894-107.9353-97.9547c-4.6797-3.3602-7.3081-2.6836-7.3967,2.9609
		c17.2333,31.062,37.6604,63.1221,60.9929,96.1027c17.4995,18.5308,46.4545,40.3218,77.9933,62.845
		c27.458,10.1138,51.6111,22.2679,70.2417,37.8933c8.3062,12.5978,10.7126,29.2765,7.9402,49.5261
		c13.2521-3.5819,26.9478-12.3428,41.0316-25.6835c7.6851,21.6913,8.5057,43.194,2.0405,64.4972
		c15.5698-5.2676,31.1617-20.9594,46.7538-43.2495c10.4353,8.3727,18.0095,28.467,22.3678,61.736
		c25.6281-14.8934,44.6246-33.4131,52.4872-58.032c16.2906,8.3615,27.0587,25.3619,32.9028,50.0807
		c23.5988-17.1779,61.1925-36.9063,101.4701-57.1116c27.4247-15.4036,47.3082-31.6277,59.8951-48.6281
		c4.9237-6.6426,8.7386-13.4183,11.4443-20.3049c10.8014-20.9706,13.1968-36.7511,1.4861-43.8041
		c-5.4894-1.1755-9.9918-2.8612-12.5757-5.5448c16.0466-19.0964,21.6803-37.6383,24.0313-56.0027
		c-2.2844-2.1403-4.6355-3.704-7.3967-1.8519c-9.4041,16.3239-27.9902,33.2134-49.5264,50.2693
		c-26.3489,12.7531-59.7286,14.7825-97.2227,10.535c22.889-24.7075,37.1169-50.38,40.4772-77.2502
		c-2.6395-0.854-5.4008-0.5768-8.3174,0.9204c-10.036,23.0664-34.7659,39.6122-69.8646,51.5668
		c-26.3267,2.5507-52.5093,3.0386-78.5477,1.2976c-66.1497-19.6953-94.0955-46.3881-100.1837-77.073
		c44.8687-0.0222,81.7527,5.0679,100.1836,21.9907c15.1373,8.7607,28.1344,17.5105,38.4366,26.249
		c25.9829,1.4639,47.9847-0.4657,63.9539-7.5853c7.1638-10.4463,8.8384-21.0259,2.7723-31.7827
		c-1.8519-33.1136,0.9648-63.2664,12.9415-87.6081c12.9639-20.1166,29.3986-34.8879,49.5262-43.9925
		c0.0776-4.5024-0.2217-9.1156-0.9204-13.8287c-0.3326-2.3288-0.7653-4.6797-1.2975-7.053
		c-15.215-0.5767-31.8494,9.404-48.6058,20.3273c-23.9536,26.238-37.494,57.533-43.9926,92.2324
		c-14.9487,0.8094-33.3353-4.6466-52.6757-11.8326c-15.4701-5.6002-33.5461-9.0824-53.2302-11.2781
		c-20.2385,0.6876-42.5287,7.1196-65.9832,16.8229c1.8408-45.1569,10.7902-84.1369,32.9028-111.6392
		c27.8461-30.4965,63.3883-42.817,104.9855-40.8431c42.7283,5.068,84.1147,12.8529,124.0151,23.6542
		c24.2642,1.73,45.2678,1.7632,63.2551,0.2328c25.8833-2.2068,45.5229-7.6407,59.6511-15.9357
		c41.3644-12.8862,65.1182-43.8817,68.5781-95.7478c3.4489-29.0215,1.2976-53.2413-6.4762-72.637
		c-9.5371-15.1484-34.3003-22.5784-66.1608-26.4266c-11.8881-1.0313-10.2135-9.2931-3.7039-20.1498
		c8.2506-4.1143,16.3905-6.1326,24.3971-5.9108c3.0719-9.3707-4.1141-18.8856-16.08-28.467
		C1765.8273,605.7429,1732.8688,588.0218,1693.8667,574.2705z M1956.1362,838.015c16.0356-32.1488,19.0741-68.4562,12.1986-107.9353
		c-1.2532-25.0736-0.8761-49.249-1.475-63.2108c-21.0037,14.5496-50.8348,28.2452-82.4402,41.7635
		c-3.8148,21.647-4.4581,49.4153-3.6929,79.8453c-8.9604,20.1166-14.3944,43.4602-18.1094,68.3896
		c18.2203,14.1171,30.5963,30.5298,39.1797,48.4284C1922.3019,890.0475,1940.5775,868.1234,1956.1362,838.015z"/>
</g>
</svg>
